<svg width="146" height="39" viewBox="0 0 146 39" fill="none" xmlns="http://www.w3.org/2000/svg">
<path d="M26.7652 0.554199H30.6245V31.3186H49.8569V34.9015H26.7652V0.554199Z" fill="white"/>
<path d="M0 0.554199H3.85931V31.3186H23.0918V34.9015H0V0.554199Z" fill="white"/>
<path d="M34.2915 0.554199H46.3246C53.5816 0.554199 58.3577 4.43358 58.3577 10.8068V10.8971C58.3577 17.8696 52.5687 21.4719 45.722 21.4719H37.92V27.7227H34.2915V0.554199ZM45.8694 18.1467C51.1968 18.1467 54.6907 15.2855 54.6907 11.0324V10.9422C54.6907 6.32172 51.2481 3.92449 46.0553 3.92449H37.92V18.1467H45.8694Z" fill="white"/>
<path d="M94.7647 28.1675L97.0149 25.4867C100.368 28.5348 103.586 30.0556 108.042 30.0556C112.362 30.0556 115.209 27.7486 115.209 24.5588V24.4686C115.209 21.4656 113.6 19.7579 106.849 18.3273C99.451 16.7098 96.0533 14.3126 96.0533 9.00259V8.91238C96.0533 3.83438 100.509 0.090332 106.618 0.090332C111.305 0.090332 114.658 1.43072 117.921 4.05993L115.805 6.87602C112.818 4.42725 109.83 3.36396 106.529 3.36396C102.349 3.36396 99.6818 5.67097 99.6818 8.58372V8.67394C99.6818 11.722 101.336 13.4297 108.407 14.957C115.574 16.5294 118.882 19.1586 118.882 24.1012V24.1915C118.882 29.7334 114.286 33.3357 107.9 33.3357C102.804 33.3422 98.6241 31.628 94.7647 28.1675Z" fill="white"/>
<path d="M131.531 3.92449H120.735V0.554199H146V3.92449H135.204V32.8781H131.531V3.92449Z" fill="white"/>
<path d="M60.6463 16.8063V16.7161C60.6463 7.80387 67.3072 0 77.0901 0C86.873 0 93.4441 7.71365 93.4441 16.6259V16.7161C93.4441 25.6284 86.7832 33.4323 77.0003 33.4323C67.2174 33.4323 60.6463 25.7186 60.6463 16.8063Z" fill="#00AEEF"/>
<path d="M66.1661 21.9937C66.9482 19.7576 68.0893 17.8437 69.6471 16.1424C71.1024 14.5572 72.9615 13.249 75.4938 12.0117C75.59 11.9666 75.6413 11.8571 75.6092 11.7539C75.5772 11.6508 75.481 11.5864 75.372 11.5993C69.3843 12.3468 63.621 18.0499 62.7811 24.0429C62.7747 24.1009 62.7876 24.1654 62.826 24.2105C62.8645 24.2556 62.9158 24.2878 62.9735 24.2943C63.3325 24.3265 63.6851 24.3587 64.0441 24.3909C64.8006 24.4618 65.5891 24.5263 66.352 24.6294C71.7114 25.3318 75.731 26.9879 78.9941 29.8298C81.4238 31.9435 83.1868 34.6114 84.392 37.9816L84.6998 38.8516C84.7318 38.9418 84.8152 38.9998 84.9049 38.9998C84.9241 38.9998 84.937 38.9998 84.9562 38.9934C85.0652 38.9676 85.1357 38.8645 85.1229 38.7549C84.8216 36.2288 82.456 23.5983 66.1661 21.9937Z" fill="white"/>
<path d="M83.9818 25.2349C81.9688 22.7088 79.1929 21.3491 76.7439 20.3567C76.2054 20.1375 75.6284 19.912 75.0451 19.7509C74.7117 19.6607 74.6604 19.5511 74.763 19.1709C75.0643 18.0496 75.6733 17.0508 76.6157 16.1293C76.8337 15.9166 77.0645 15.704 77.2889 15.4978L77.603 15.2078C77.6799 15.1369 77.6991 15.0145 77.635 14.9242C77.5773 14.834 77.4555 14.8018 77.3658 14.8469C75.0258 15.9166 73.5129 17.7725 72.7436 20.5242C72.7243 20.5822 72.7372 20.6466 72.7628 20.6982C72.7949 20.7497 72.8461 20.7884 72.9038 20.8013C80.4814 22.5219 84.6421 26.2208 85.9948 32.4459C86.014 32.549 86.1102 32.6199 86.2063 32.6199C86.2127 32.6199 86.2256 32.6199 86.2384 32.6199C86.3538 32.607 86.4307 32.5039 86.4307 32.3943C86.2961 29.4687 85.4947 27.1295 83.9818 25.2349Z" fill="white"/>
<path d="M63.0504 11.1869C63.1145 11.1869 63.1722 11.1611 63.2171 11.1095C63.5248 10.7487 63.8133 10.4071 64.089 10.072C64.6723 9.37607 65.2173 8.71877 65.7878 8.09368C68.0701 5.61269 70.2626 4.12409 72.6987 3.40234C76.1221 2.39061 79.148 2.81592 81.7572 4.67828C81.9495 4.81361 82.1354 4.98116 82.3534 5.17448C82.4688 5.27759 82.5906 5.38714 82.7316 5.50958C82.8085 5.57402 82.9111 5.58046 82.988 5.52891C83.0714 5.47736 83.1099 5.3807 83.0842 5.28403C82.8278 4.30452 82.3213 3.615 81.4815 3.11235C78.3402 1.23066 75.0194 0.953564 71.7242 2.29395C68.1534 3.75033 64.6659 7.11417 62.8517 10.8711C62.8004 10.9678 62.8389 11.0902 62.9286 11.1482C62.9671 11.174 63.0119 11.1869 63.0504 11.1869Z" fill="white"/>
<path d="M75.4489 8.48047H75.2053C69.3394 8.48047 64.5505 12.2439 62.3901 18.5462C62.3516 18.6493 62.4029 18.7718 62.5055 18.8169C62.5375 18.8298 62.5696 18.8362 62.6016 18.8362C62.6786 18.8362 62.7491 18.7976 62.7876 18.7331C66.1148 13.2491 70.2754 10.04 75.5002 8.91867C75.6092 8.89289 75.6797 8.79623 75.6733 8.68024C75.6541 8.56424 75.5643 8.48047 75.4489 8.48047Z" fill="white"/>
<path d="M80.6289 5.30321C80.6289 5.21299 80.5712 5.13566 80.4943 5.09699C79.0967 4.06593 77.5517 3.61484 75.8721 3.7115C72.0384 3.9306 68.8458 5.81874 66.1276 9.4919C66.0635 9.58212 66.0699 9.70456 66.1532 9.78189C66.1981 9.82056 66.2494 9.84633 66.3071 9.84633C66.3584 9.84633 66.4033 9.83344 66.4417 9.79478C69.4869 7.32667 72.8782 5.039 77.0132 5.039C78.0966 5.039 79.2185 5.19366 80.3468 5.50942C80.3661 5.51586 80.3917 5.51586 80.4109 5.51586C80.5391 5.5352 80.6289 5.42565 80.6289 5.30321Z" fill="white"/>
<path d="M80.2122 18.6429L81.2956 16.8192C81.3469 16.7355 81.3341 16.6259 81.27 16.555C81.2058 16.4841 81.0969 16.4648 81.0135 16.5035C79.7057 17.1479 78.8723 18.0243 78.3723 19.268C78.3466 19.3324 78.353 19.3969 78.3851 19.4613C78.4171 19.5193 78.4748 19.558 78.539 19.5709C83.0522 20.2926 85.8921 22.7027 87.2256 26.9494C87.2576 27.0397 87.341 27.1041 87.4372 27.1041C87.4436 27.1041 87.45 27.1041 87.4564 27.1041C87.559 27.0977 87.6423 27.0139 87.6551 26.9108C87.8282 25.5575 86.6422 22.9992 85.1677 21.5492C83.6548 20.0477 81.7572 19.21 80.2122 18.6429Z" fill="white"/>
<path d="M90.6105 17.1412C90.54 17.1089 90.4567 17.1218 90.399 17.1605C90.0784 17.386 89.713 17.4956 89.2386 17.4956C88.9309 17.4956 88.6104 17.4505 88.277 17.4054C87.918 17.3538 87.5462 17.3023 87.1808 17.3087C86.9243 16.4645 86.9948 16.4065 88.4629 15.9297C88.5655 15.8974 88.6296 15.7943 88.6104 15.6848C88.5911 15.5752 88.5014 15.4979 88.3924 15.4979H87.2705L87.7 14.6086C87.7385 14.5313 87.7257 14.4411 87.6744 14.3766C87.559 14.2349 87.4308 14.2026 87.341 14.2026C87.1423 14.2026 86.9564 14.3444 86.7769 14.6344C86.0781 15.7557 86.123 16.9543 86.2512 17.9725C86.264 18.082 86.3602 18.1658 86.4692 18.1658L87.9244 18.1593C88.2129 18.1593 88.5014 18.1593 88.7899 18.1658C89.9502 18.1851 90.0336 18.2689 90.0977 19.3902C90.1233 19.867 90.0913 20.3568 90.0528 20.8723C90.04 21.027 90.0336 21.1881 90.0207 21.3556C89.5592 21.1817 89.104 21.0012 88.6681 20.8272C87.2513 20.2601 85.9178 19.7188 84.578 19.6222C84.4626 19.6157 84.3792 19.6802 84.3472 19.7833C84.3215 19.8864 84.3728 19.9959 84.469 20.041L90.1425 22.7089C90.1746 22.7218 90.2067 22.7282 90.2323 22.7282C90.3156 22.7282 90.3926 22.6831 90.431 22.6058C91.2324 20.9303 90.9759 19.0937 90.7323 17.3152C90.7323 17.2378 90.681 17.1734 90.6105 17.1412Z" fill="white"/>
<path d="M92.0658 13.5194C91.2837 12.585 90.4182 11.8568 89.4438 11.3026C89.4566 11.2897 89.4694 11.2833 89.4758 11.2769C89.5399 11.1995 89.5335 11.0835 89.4694 11.0062C87.6936 8.79586 86.014 7.48126 84.033 6.75307C83.9305 6.7144 83.8151 6.75951 83.7638 6.85617C83.7125 6.95284 83.7381 7.07527 83.8279 7.13972C85.11 8.08701 86.0909 9.02785 86.9115 10.1105C87.1808 10.4585 87.5846 10.684 88.0206 10.8709C87.9885 10.9547 88.0013 11.0578 88.0719 11.1158C88.3603 11.3671 88.6488 11.6184 88.9309 11.8633C89.572 12.4239 90.181 12.9459 90.7708 13.513C90.9054 13.6419 91.0144 13.7643 91.0913 13.8803C91.0657 13.8674 91.0401 13.8674 91.0144 13.8674H89.5848C89.5079 13.8674 89.4374 13.9061 89.3989 13.977C89.3604 14.0414 89.3604 14.1252 89.3989 14.1961L90.8413 16.7673C90.8798 16.8382 90.9503 16.8768 91.0336 16.8768H91.0401C91.1234 16.8704 91.1939 16.8253 91.2324 16.7479L91.5465 16.0584C91.8286 15.4527 92.0914 14.8856 92.3158 14.3056C92.444 13.9834 92.0786 13.5388 92.0658 13.5194ZM91.0913 14.2927C91.1555 14.2669 91.2003 14.2154 91.2196 14.151C91.3029 14.428 91.2324 14.718 91.008 15.1047C90.8862 14.9178 90.758 14.7309 90.617 14.5376L90.5849 14.4925L91.0913 14.2927Z" fill="white"/>
<path d="M79.8211 6.44377L79.8596 6.26333C79.8724 6.20534 79.8596 6.14734 79.8275 6.09579C79.7954 6.04423 79.7442 6.01201 79.6865 6.00557C79.4236 5.96046 79.1608 5.90246 78.8979 5.85091C78.3081 5.72847 77.6991 5.59959 77.0837 5.56092C76.2759 5.51581 75.9297 5.79936 75.7887 6.04423C75.6412 6.29556 75.5515 6.75309 75.9617 7.52639C76.0002 7.59727 76.0771 7.64238 76.1541 7.64238C76.1605 7.64238 76.1669 7.64238 76.1733 7.64238C76.2566 7.63594 76.3336 7.57794 76.3656 7.49417C76.6605 6.65643 76.8465 6.45022 77.7119 6.45022C78.1607 6.45022 78.7889 6.5211 79.5839 6.62421C79.6993 6.6371 79.7955 6.55332 79.8211 6.44377Z" fill="white"/>
<path d="M80.1737 14.7893C80.2121 14.8215 80.2634 14.8344 80.3083 14.8344C80.3596 14.8344 80.4109 14.8151 80.4493 14.7829C80.5263 14.712 80.5455 14.596 80.4942 14.5058C80.3852 14.3125 80.2698 14.1191 80.1544 13.9258C79.3339 12.5403 78.5517 11.2386 78.712 9.576C78.7248 9.46645 78.6543 9.36979 78.5453 9.34401C78.4428 9.31824 78.3338 9.37624 78.2889 9.4729C77.6414 11.0968 78.462 13.4296 80.1737 14.7893Z" fill="white"/>
<path d="M86.0075 10.6518C86.0716 10.6389 86.1293 10.5938 86.155 10.5294C86.1806 10.4649 86.1806 10.3941 86.1486 10.3361L85.6613 9.38233C85.6165 9.29856 85.5331 9.25345 85.4306 9.26634C85.3344 9.27922 85.2639 9.35655 85.2511 9.44677L85.187 9.87209L83.533 9.94942C83.424 9.95586 83.3343 10.0461 83.3278 10.1556L83.315 10.291C83.3086 10.3747 83.3535 10.4585 83.4304 10.5036L85.3472 11.5476C85.3793 11.5669 85.4177 11.5733 85.4498 11.5733C85.4947 11.5733 85.5395 11.5605 85.578 11.5347C85.6485 11.4896 85.6806 11.4058 85.6678 11.322C85.6613 11.264 85.6485 11.1996 85.6357 11.1351C85.6101 11.0063 85.5844 10.8709 85.578 10.7356C85.6293 10.7227 85.6934 10.7163 85.7447 10.7034C85.828 10.6841 85.9242 10.6712 86.0075 10.6518Z" fill="white"/>
<path d="M83.7509 5.96059C83.7381 6.05726 83.7894 6.14747 83.8727 6.18614C83.9048 6.19903 83.9368 6.20547 83.9689 6.20547C84.0266 6.20547 84.0843 6.1797 84.1227 6.14103C84.6548 5.59328 84.8536 4.89087 84.6677 4.20779C84.4625 3.44738 83.8022 2.85451 82.9111 2.61608C82.8149 2.5903 82.7124 2.63541 82.6611 2.72563C82.6098 2.81585 82.6354 2.9254 82.7124 2.99628C83.6035 3.76958 83.9112 4.65888 83.7509 5.96059Z" fill="white"/>
<path d="M79.5198 9.19571C79.5519 9.2086 79.5839 9.22149 79.616 9.22149C79.6737 9.22149 79.725 9.20215 79.7634 9.16349L81.5969 7.43001C81.661 7.36557 81.6866 7.26891 81.6482 7.18513C81.6161 7.10136 81.5328 7.0498 81.443 7.0498C80.3724 7.06914 79.507 7.8811 79.3916 8.98305C79.3852 9.06682 79.4365 9.15704 79.5198 9.19571Z" fill="white"/>
<path d="M82.3341 13.7773C82.2764 13.7773 82.2188 13.8031 82.1803 13.8482L82.0008 14.048C81.9623 14.0931 81.9431 14.1511 81.9431 14.2091C81.9431 14.2671 81.9751 14.3251 82.02 14.3638L83.7894 15.9232C83.8279 15.9619 83.8792 15.9748 83.9305 15.9748C83.9882 15.9748 84.0459 15.949 84.0907 15.9039L84.2318 15.7493C84.3151 15.659 84.3087 15.5237 84.219 15.4399L82.488 13.8418C82.4495 13.7967 82.3854 13.7773 82.3341 13.7773Z" fill="white"/>
</svg>
